<svg width="24" height="26" viewBox="0 0 24 26" fill="none" xmlns="http://www.w3.org/2000/svg">
<path d="M20.5 11.75H3C1.61929 11.75 0.5 12.8693 0.5 14.25V23C0.5 24.3807 1.61929 25.5 3 25.5H20.5C21.8807 25.5 23 24.3807 23 23V14.25C23 12.8693 21.8807 11.75 20.5 11.75Z" stroke="white" stroke-linecap="round" stroke-linejoin="round"/>
<path d="M5.5 11.75V6.75C5.5 5.0924 6.15848 3.50269 7.33058 2.33058C8.50269 1.15848 10.0924 0.5 11.75 0.5C13.4076 0.5 14.9973 1.15848 16.1694 2.33058C17.3415 3.50269 18 5.0924 18 6.75V11.75" stroke="white" stroke-linecap="round" stroke-linejoin="round"/>
</svg>
